<svg width="30" height="31" viewBox="0 0 30 31" fill="none" xmlns="http://www.w3.org/2000/svg" class="nav-instagram">
<path d="M14.8809 11.4906C12.5316 11.4906 10.6366 13.3856 10.6366 15.735C10.6366 18.0843 12.5316 19.9793 14.8809 19.9793C17.2302 19.9793 19.1252 18.0843 19.1252 15.735C19.1252 13.3856 17.2302 11.4906 14.8809 11.4906ZM14.8809 18.4943C13.3627 18.4943 12.1215 17.2569 12.1215 15.735C12.1215 14.2131 13.359 12.9756 14.8809 12.9756C16.4028 12.9756 17.6402 14.2131 17.6402 15.735C17.6402 17.2569 16.3991 18.4943 14.8809 18.4943ZM20.2888 11.317C20.2888 11.8674 19.8455 12.307 19.2988 12.307C18.7484 12.307 18.3088 11.8637 18.3088 11.317C18.3088 10.7703 18.7521 10.327 19.2988 10.327C19.8455 10.327 20.2888 10.7703 20.2888 11.317ZM23.0998 12.3218C23.037 10.9956 22.7341 9.82096 21.7626 8.85315C20.7948 7.88534 19.6202 7.58243 18.2941 7.51594C16.9273 7.43837 12.8308 7.43837 11.464 7.51594C10.1416 7.57874 8.96696 7.88164 7.99547 8.84946C7.02397 9.81727 6.72477 10.9919 6.65828 12.3181C6.5807 13.6848 6.5807 17.7814 6.65828 19.1482C6.72107 20.4743 7.02397 21.649 7.99547 22.6168C8.96696 23.5846 10.1379 23.8875 11.464 23.954C12.8308 24.0315 16.9273 24.0315 18.2941 23.954C19.6202 23.8912 20.7948 23.5883 21.7626 22.6168C22.7304 21.649 23.0333 20.4743 23.0998 19.1482C23.1774 17.7814 23.1774 13.6885 23.0998 12.3218ZM21.3341 20.6147C21.046 21.3387 20.4882 21.8964 19.7605 22.1883C18.6708 22.6205 16.0851 22.5207 14.8809 22.5207C13.6767 22.5207 11.0873 22.6168 10.0013 22.1883C9.27725 21.9001 8.71947 21.3424 8.42765 20.6147C7.99547 19.5249 8.0952 16.9392 8.0952 15.735C8.0952 14.5307 7.99916 11.9413 8.42765 10.8553C8.71578 10.1313 9.27356 9.57347 10.0013 9.28165C11.091 8.84945 13.6767 8.94919 14.8809 8.94919C16.0851 8.94919 18.6745 8.85315 19.7605 9.28165C20.4845 9.56977 21.0423 10.1276 21.3341 10.8553C21.7663 11.945 21.6666 14.5307 21.6666 15.735C21.6666 16.9392 21.7663 19.5286 21.3341 20.6147Z" fill="black"/>
<path d="M29.25 15.8578C29.25 23.728 22.87 30.108 15 30.108C7.12995 30.108 0.75 23.728 0.75 15.8578C0.75 7.98768 7.12995 1.60767 15 1.60767C22.87 1.60767 29.25 7.98768 29.25 15.8578Z" stroke="black" stroke-width="1.5"/>
</svg>
