<svg width="30" height="31" viewBox="0 0 30 31" fill="none" xmlns="http://www.w3.org/2000/svg" class="nav-facebook">
<path d="M18.6069 16.5104L19.0235 13.7957H16.4187V12.034C16.4187 11.2913 16.7826 10.5674 17.9492 10.5674H19.1334V8.25615C19.1334 8.25615 18.0588 8.07275 17.0313 8.07275C14.8862 8.07275 13.4841 9.37296 13.4841 11.7267V13.7957H11.0996V16.5104H13.4841V23.0729H16.4187V16.5104H18.6069Z" fill="black"/>
<path d="M29.25 15.5729C29.25 23.4431 22.87 29.8231 15 29.8231C7.12995 29.8231 0.75 23.4431 0.75 15.5729C0.75 7.70277 7.12995 1.32275 15 1.32275C22.87 1.32275 29.25 7.70277 29.25 15.5729Z" stroke="black" stroke-width="1.5"/>
</svg>
