<svg width="30" height="30" viewBox="0 0 30 30" fill="none" xmlns="http://www.w3.org/2000/svg" class="nav-whatsup">
<path d="M21.1389 8.78492C19.5396 7.18178 17.4097 6.30005 15.1463 6.30005C10.4743 6.30005 6.67262 10.1018 6.67262 14.7738C6.67262 16.2663 7.06195 17.7244 7.80244 19.0107L6.6001 23.4002L11.0927 22.2208C12.3294 22.8964 13.7226 23.2514 15.1425 23.2514H15.1463C19.8144 23.2514 23.7001 19.4496 23.7001 14.7776C23.7001 12.5141 22.7382 10.3881 21.1389 8.78492ZM15.1463 21.8238C13.879 21.8238 12.6385 21.4841 11.5583 20.8429L11.3026 20.6902L8.63836 21.3887L9.34831 18.7893L9.18037 18.5221C8.47423 17.3999 8.10398 16.1059 8.10398 14.7738C8.10398 10.8919 11.2644 7.73143 15.1501 7.73143C17.0319 7.73143 18.7991 8.46429 20.1274 9.79643C21.4557 11.1286 22.2726 12.8958 22.2687 14.7776C22.2687 18.6633 19.0281 21.8238 15.1463 21.8238ZM19.009 16.5487C18.7991 16.4418 17.7571 15.9304 17.5624 15.8617C17.3678 15.7891 17.2265 15.7548 17.0853 15.9685C16.9441 16.1823 16.5395 16.6556 16.4135 16.8006C16.2914 16.9419 16.1654 16.961 15.9555 16.8541C14.7111 16.2319 13.8943 15.7433 13.0737 14.3349C12.8561 13.9608 13.2912 13.9875 13.6958 13.1783C13.7645 13.0371 13.7302 12.9149 13.6767 12.808C13.6233 12.7012 13.1996 11.6591 13.024 11.2354C12.8523 10.8232 12.6767 10.8805 12.5469 10.8728C12.4248 10.8652 12.2836 10.8652 12.1423 10.8652C12.0011 10.8652 11.7721 10.9186 11.5774 11.1286C11.3828 11.3423 10.8369 11.8538 10.8369 12.8958C10.8369 13.9379 11.5965 14.9456 11.6996 15.0868C11.8064 15.228 13.192 17.3656 15.318 18.2855C16.6616 18.8656 17.1884 18.9153 17.8601 18.816C18.2686 18.7549 19.1121 18.3045 19.2877 17.8083C19.4633 17.3121 19.4633 16.8884 19.4098 16.8006C19.3602 16.7052 19.219 16.6518 19.009 16.5487Z" fill="black"/>
<path d="M29.25 15.0002C29.25 22.8703 22.87 29.2503 15 29.2503C7.12995 29.2503 0.75 22.8703 0.75 15.0002C0.75 7.13001 7.12995 0.75 15 0.75C22.87 0.75 29.25 7.13001 29.25 15.0002Z" stroke="black" stroke-width="1.5"/>
</svg>
