<svg width="30" height="31" viewBox="0 0 30 31" fill="none" xmlns="http://www.w3.org/2000/svg" class="nav-telegram">
<path d="M29.25 15.7155C29.25 23.5857 22.87 29.9657 15 29.9657C7.12995 29.9657 0.75 23.5857 0.75 15.7155C0.75 7.84534 7.12995 1.46533 15 1.46533C22.87 1.46533 29.25 7.84534 29.25 15.7155Z" stroke="black" stroke-width="1.5"/>
<path d="M13.8871 19.5679C13.6518 19.7964 13.4197 20.0203 13.1891 20.2441C12.8495 20.5745 12.5114 20.9048 12.1702 21.2335C11.9054 21.4887 11.614 21.6312 11.3523 21.6312C11.3741 21.3353 11.3944 21.041 11.4177 20.7467C11.4863 19.8528 11.5595 18.9589 11.6234 18.065C11.6343 17.9147 11.6795 17.8067 11.7932 17.7034C14.007 15.6776 16.2162 13.6472 18.4269 11.6168C18.4378 11.6058 18.4534 11.598 18.4611 11.5839C18.5001 11.5072 18.539 11.4289 18.5764 11.3506C18.4861 11.3303 18.3926 11.2911 18.3038 11.2974C18.2275 11.3037 18.148 11.3522 18.0795 11.396C15.283 13.1635 12.4896 14.9325 9.69155 16.6983C9.62923 16.7375 9.52329 16.75 9.45163 16.7296C8.3159 16.3868 7.18172 16.0377 6.04755 15.687C5.89954 15.6416 5.74531 15.6056 5.60665 15.5399C5.31999 15.4052 5.25456 15.1548 5.468 14.9199C5.59575 14.779 5.77024 14.6616 5.94784 14.5896C6.98231 14.1748 8.02301 13.774 9.06059 13.3717C12.7809 11.9283 16.5028 10.4849 20.2247 9.04155C20.3026 9.0118 20.3805 8.98519 20.4615 8.96484C20.9274 8.84117 21.3418 9.10573 21.3667 9.58947C21.3823 9.88534 21.3293 10.1906 21.267 10.4834C20.4958 14.1575 19.7184 17.8302 18.9379 21.5012C18.8943 21.7079 18.8351 21.9177 18.7478 22.1086C18.5951 22.4405 18.3272 22.5642 17.9797 22.4609C17.7897 22.4045 17.5965 22.3215 17.4376 22.2041C16.3034 21.3697 15.177 20.5244 14.0475 19.6837C13.9977 19.6461 13.9478 19.6117 13.8886 19.571L13.8871 19.5679Z" fill="black"/>
</svg>
