<svg width="30" height="31" viewBox="0 0 30 31" fill="none" xmlns="http://www.w3.org/2000/svg" class="nav-twitter">
<path d="M20.562 12.6099C20.571 12.7363 20.571 12.8626 20.571 12.989C20.571 16.8429 17.6377 21.2836 12.2765 21.2836C10.6248 21.2836 9.09047 20.8052 7.7998 19.9749C8.03448 20.0019 8.2601 20.011 8.5038 20.011C9.86664 20.011 11.1212 19.5507 12.1231 18.7654C10.8414 18.7384 9.76738 17.899 9.39732 16.7437C9.57785 16.7707 9.75835 16.7888 9.9479 16.7888C10.2096 16.7888 10.4714 16.7527 10.7151 16.6895C9.37929 16.4187 8.37742 15.2454 8.37742 13.8284V13.7923C8.7655 14.0089 9.21682 14.1443 9.69514 14.1623C8.90991 13.6388 8.39548 12.7453 8.39548 11.7344C8.39548 11.1929 8.53986 10.6965 8.79259 10.2632C10.2277 12.0322 12.3848 13.1875 14.8036 13.3139C14.7585 13.0973 14.7314 12.8717 14.7314 12.646C14.7314 11.0394 16.0311 9.73071 17.6467 9.73071C18.4861 9.73071 19.2442 10.0827 19.7767 10.6513C20.4356 10.525 21.0674 10.2813 21.627 9.94733C21.4103 10.6243 20.95 11.1929 20.3453 11.5539C20.932 11.4907 21.5006 11.3282 22.0241 11.1026C21.627 11.6802 21.1306 12.1947 20.562 12.6099Z" fill="black"/>
<path d="M29.25 15.4306C29.25 23.3008 22.87 29.6808 15 29.6808C7.12995 29.6808 0.75 23.3008 0.75 15.4306C0.75 7.56043 7.12995 1.18042 15 1.18042C22.87 1.18042 29.25 7.56043 29.25 15.4306Z" stroke="black" stroke-width="1.5"/>
</svg>
