<svg width="17" height="19" viewBox="0 0 17 19" fill="none" xmlns="http://www.w3.org/2000/svg" class="nav-share">
<path d="M14.1667 13.1837C13.4938 13.1837 12.8728 13.426 12.3864 13.8307L7.49417 10.198C7.57608 9.73645 7.57608 9.26355 7.49417 8.80204L12.3864 5.16926C12.8728 5.57398 13.4938 5.81633 14.1667 5.81633C15.7297 5.81633 17 4.5125 17 2.90816C17 1.30383 15.7297 0 14.1667 0C12.6036 0 11.3333 1.30383 11.3333 2.90816C11.3333 3.18929 11.3711 3.45829 11.4443 3.71518L6.79764 7.16862C6.10819 6.23074 5.01264 5.62245 3.77778 5.62245C1.69056 5.62245 0 7.35765 0 9.5C0 11.6423 1.69056 13.3776 3.77778 13.3776C5.01264 13.3776 6.10819 12.7693 6.79764 11.8314L11.4443 15.2848C11.3711 15.5417 11.3333 15.8131 11.3333 16.0918C11.3333 17.6962 12.6036 19 14.1667 19C15.7297 19 17 17.6962 17 16.0918C17 14.4875 15.7297 13.1837 14.1667 13.1837ZM14.1667 1.64796C14.8443 1.64796 15.3944 2.21263 15.3944 2.90816C15.3944 3.6037 14.8443 4.16837 14.1667 4.16837C13.489 4.16837 12.9389 3.6037 12.9389 2.90816C12.9389 2.21263 13.489 1.64796 14.1667 1.64796ZM3.77778 11.6327C2.63264 11.6327 1.7 10.6754 1.7 9.5C1.7 8.32462 2.63264 7.36735 3.77778 7.36735C4.92292 7.36735 5.85556 8.32462 5.85556 9.5C5.85556 10.6754 4.92292 11.6327 3.77778 11.6327ZM14.1667 17.352C13.489 17.352 12.9389 16.7874 12.9389 16.0918C12.9389 15.3963 13.489 14.8316 14.1667 14.8316C14.8443 14.8316 15.3944 15.3963 15.3944 16.0918C15.3944 16.7874 14.8443 17.352 14.1667 17.352Z" fill="white"/>
</svg>
